<?xml version="1.0" encoding="utf-8" ?>
<svg baseProfile="full" height="167" version="1.1" width="163" xmlns="http://www.w3.org/2000/svg" xmlns:ev="http://www.w3.org/2001/xml-events" xmlns:xlink="http://www.w3.org/1999/xlink"><defs /><polygon fill="#20361e" points="33.0,95.2 32.8,95.0 32.8,94.0 32.8,93.0 33.0,92.8 33.8,92.0 33.8,91.0 34.0,90.8 34.8,90.0 34.8,89.0 34.8,88.0 35.0,87.8 35.8,87.0 35.8,86.0 36.0,85.8 36.8,85.0 36.8,84.0 37.0,83.8 37.8,83.0 37.8,82.0 37.8,81.0 38.0,80.8 38.8,80.0 38.8,79.0 39.0,78.8 39.8,78.0 39.8,77.0 40.0,76.8 40.8,76.0 40.8,75.0 41.0,74.8 41.8,74.0 41.8,73.0 41.8,72.0 42.0,71.8 42.8,71.0 42.8,70.0 43.0,69.8 43.8,69.0 43.8,68.0 44.0,67.8 44.8,67.0 44.8,66.0 44.8,65.0 45.0,64.8 45.8,64.0 45.8,63.0 46.0,62.8 46.8,62.0 46.8,61.0 47.0,60.8 47.8,60.0 47.8,59.0 48.0,58.8 48.8,58.0 48.8,57.0 48.8,56.0 49.0,55.8 49.8,55.0 49.8,54.0 50.0,53.8 50.8,53.0 50.8,52.0 51.0,51.8 51.8,51.0 51.8,50.0 51.8,49.0 52.0,48.8 52.8,48.0 52.8,47.0 53.0,46.8 53.8,46.0 53.8,45.0 54.0,44.8 54.8,44.0 54.8,43.0 54.8,42.0 55.0,41.8 55.8,41.0 55.8,40.0 56.0,39.8 56.8,39.0 56.8,38.0 57.0,37.8 57.8,37.0 57.8,36.0 57.8,35.0 58.0,34.8 58.8,34.0 58.8,33.0 59.0,32.8 59.8,32.0 59.8,31.0 60.0,30.8 60.8,30.0 60.8,29.0 61.0,28.8 61.8,28.0 61.8,27.0 61.8,26.0 62.0,25.8 62.8,25.0 62.8,24.0 63.0,23.8 63.8,23.0 63.8,22.0 64.0,21.8 64.8,21.0 64.8,20.0 65.0,19.8 65.8,19.0 65.8,18.0 65.8,17.0 66.0,16.8 66.8,16.0 66.8,15.0 67.0,14.8 67.8,14.0 67.8,13.0 67.8,12.0 68.0,11.8 68.8,11.0 68.8,10.0 69.0,9.8 69.8,9.0 69.8,8.0 70.0,7.8 71.0,7.8 72.0,7.8 73.0,7.8 74.0,7.8 75.0,7.8 76.0,7.8 77.0,7.8 78.0,7.8 79.0,7.8 80.0,7.8 81.0,7.8 82.0,7.8 83.0,7.8 84.0,7.8 85.0,7.8 86.0,7.8 87.0,7.8 88.0,7.8 89.0,7.8 90.0,7.8 91.0,7.8 92.0,7.8 92.2,8.0 92.2,9.0 93.0,9.8 93.2,10.0 93.2,11.0 93.2,12.0 94.0,12.8 94.2,13.0 94.2,14.0 95.0,14.8 95.2,15.0 95.2,16.0 96.0,16.8 96.2,17.0 96.2,18.0 97.0,18.8 97.2,19.0 97.2,20.0 97.2,21.0 98.0,21.8 98.2,22.0 98.2,23.0 99.0,23.8 99.2,24.0 99.2,25.0 100.0,25.8 100.2,26.0 100.2,27.0 100.2,28.0 101.0,28.8 101.2,29.0 101.2,30.0 102.0,30.8 102.2,31.0 102.2,32.0 103.0,32.8 103.2,33.0 103.2,34.0 103.2,35.0 104.0,35.8 104.2,36.0 104.2,37.0 105.0,37.8 105.2,38.0 105.2,39.0 106.0,39.8 106.2,40.0 106.2,41.0 106.2,42.0 107.0,42.8 107.2,43.0 107.2,44.0 108.0,44.8 108.2,45.0 108.2,46.0 109.0,46.8 109.2,47.0 109.2,48.0 109.2,49.0 110.0,49.8 110.2,50.0 110.2,51.0 111.0,51.8 111.2,52.0 111.2,53.0 112.0,53.8 112.2,54.0 112.2,55.0 113.0,55.8 113.2,56.0 113.2,57.0 113.2,58.0 114.0,58.8 114.2,59.0 114.2,60.0 115.0,60.8 115.2,61.0 115.2,62.0 116.0,62.8 116.2,63.0 116.2,64.0 117.0,64.8 117.2,65.0 117.2,66.0 117.2,67.0 118.0,67.8 118.2,68.0 118.2,69.0 118.0,69.2 117.0,69.2 116.0,69.2 115.2,70.0 115.0,70.2 114.0,70.2 113.0,70.2 112.0,70.2 111.0,70.2 110.0,70.2 109.0,70.2 108.0,70.2 107.0,70.2 106.0,70.2 105.0,70.2 104.0,70.2 103.0,70.2 102.0,70.2 101.0,70.2 100.2,71.0 100.0,71.2 99.0,71.2 98.0,71.2 97.0,71.2 96.0,71.2 95.8,71.0 95.0,70.2 94.8,70.0 94.8,69.0 94.0,68.2 93.8,68.0 93.8,67.0 93.0,66.2 92.8,66.0 92.8,65.0 92.8,64.0 92.0,63.2 91.8,63.0 91.8,62.0 91.0,61.2 90.8,61.0 90.8,60.0 90.0,59.2 89.8,59.0 89.8,58.0 89.0,57.2 88.8,57.0 88.8,56.0 88.8,55.0 88.0,54.2 87.8,54.0 87.8,53.0 87.0,52.2 86.8,52.0 86.8,51.0 86.0,50.2 85.8,50.0 85.8,49.0 85.8,48.0 85.0,47.2 84.8,47.0 84.8,46.0 84.0,45.2 83.8,45.0 83.8,44.0 83.0,43.2 82.8,43.0 82.8,42.0 82.8,41.0 82.0,40.2 81.8,40.0 81.8,39.0 81.8,38.0 81.0,37.2 80.2,38.0 80.2,39.0 80.2,40.0 80.0,40.2 79.2,41.0 79.2,42.0 79.2,43.0 79.0,43.2 78.2,44.0 78.2,45.0 78.0,45.2 77.2,46.0 77.2,47.0 77.0,47.2 76.2,48.0 76.2,49.0 76.0,49.2 75.2,50.0 75.2,51.0 75.2,52.0 75.0,52.2 74.2,53.0 74.2,54.0 74.0,54.2 73.2,55.0 73.2,56.0 73.0,56.2 72.2,57.0 72.2,58.0 72.2,59.0 72.0,59.2 71.2,60.0 71.2,61.0 71.0,61.2 70.2,62.0 70.2,63.0 70.0,63.2 69.2,64.0 69.2,65.0 69.2,66.0 69.0,66.2 68.2,67.0 68.2,68.0 68.0,68.2 67.2,69.0 67.2,70.0 67.0,70.2 66.2,71.0 66.2,72.0 66.2,73.0 66.0,73.2 65.2,74.0 65.2,75.0 65.0,75.2 64.2,76.0 64.2,77.0 64.0,77.2 63.2,78.0 63.0,78.2 62.0,78.2 61.2,79.0 61.0,79.2 60.0,79.2 59.2,80.0 59.0,80.2 58.0,80.2 57.0,80.2 56.2,81.0 56.0,81.2 55.0,81.2 54.2,82.0 54.0,82.2 53.0,82.2 52.2,83.0 52.0,83.2 51.0,83.2 50.2,84.0 50.0,84.2 49.0,84.2 48.2,85.0 48.0,85.2 47.0,85.2 46.2,86.0 46.0,86.2 45.2,87.0 45.0,87.2 44.0,87.2 43.2,88.0 43.0,88.2 42.0,88.2 41.2,89.0 41.0,89.2 40.2,90.0 40.0,90.2 39.0,90.2 38.2,91.0 38.0,91.2 37.2,92.0 37.0,92.2 36.2,93.0 36.0,93.2 35.0,93.2 34.2,94.0 34.0,94.2 33.2,95.0 33.0,95.2" stroke="black" stroke-width="0.5" /><polygon fill="#20361e" points="41.0,164.2 40.0,164.2 39.0,164.2 38.0,164.2 37.0,164.2 36.0,164.2 35.0,164.2 34.0,164.2 33.0,164.2 32.0,164.2 31.0,164.2 30.0,164.2 29.0,164.2 28.0,164.2 27.0,164.2 26.0,164.2 25.0,164.2 24.0,164.2 23.0,164.2 22.0,164.2 21.0,164.2 20.0,164.2 19.0,164.2 18.0,164.2 17.0,164.2 16.0,164.2 15.0,164.2 14.0,164.2 13.0,164.2 12.0,164.2 11.0,164.2 10.0,164.2 9.0,164.2 8.0,164.2 7.0,164.2 6.0,164.2 5.0,164.2 4.0,164.2 3.0,164.2 2.8,164.0 2.8,163.0 2.8,162.0 3.0,161.8 3.8,161.0 3.8,160.0 3.8,159.0 4.0,158.8 4.8,158.0 4.8,157.0 5.0,156.8 5.8,156.0 5.8,155.0 6.0,154.8 6.8,154.0 6.8,153.0 7.0,152.8 7.8,152.0 7.8,151.0 8.0,150.8 8.8,150.0 8.8,149.0 8.8,148.0 9.0,147.8 9.8,147.0 10.0,146.8 10.8,146.0 10.8,145.0 11.0,144.8 11.8,144.0 11.8,143.0 11.8,142.0 12.0,141.8 12.8,141.0 13.0,140.8 13.8,140.0 13.8,139.0 14.0,138.8 14.8,138.0 14.8,137.0 15.0,136.8 15.8,136.0 15.8,135.0 16.0,134.8 16.8,134.0 17.0,133.8 17.8,133.0 17.8,132.0 18.0,131.8 18.8,131.0 18.8,130.0 19.0,129.8 19.8,129.0 20.0,128.8 20.8,128.0 20.8,127.0 21.0,126.8 21.8,126.0 21.8,125.0 22.0,124.8 22.8,124.0 23.0,123.8 23.8,123.0 23.8,122.0 24.0,121.8 24.8,121.0 25.0,120.8 25.8,120.0 25.8,119.0 26.0,118.8 26.8,118.0 27.0,117.8 27.8,117.0 28.0,116.8 28.8,116.0 28.8,115.0 29.0,114.8 29.8,114.0 30.0,113.8 30.8,113.0 31.0,112.8 31.8,112.0 31.8,111.0 32.0,110.8 32.8,110.0 33.0,109.8 33.8,109.0 34.0,108.8 34.8,108.0 35.0,107.8 35.8,107.0 36.0,106.8 36.8,106.0 36.8,105.0 37.0,104.8 37.8,104.0 38.0,103.8 39.0,103.8 39.8,103.0 40.0,102.8 40.8,102.0 41.0,101.8 41.8,101.0 42.0,100.8 42.8,100.0 43.0,99.8 43.8,99.0 44.0,98.8 45.0,98.8 45.8,98.0 46.0,97.8 46.8,97.0 47.0,96.8 48.0,96.8 48.8,96.0 49.0,95.8 49.8,95.0 50.0,94.8 51.0,94.8 51.8,94.0 52.0,93.8 52.8,93.0 53.0,92.8 54.0,92.8 54.8,92.0 55.0,91.8 56.0,91.8 57.0,91.8 57.8,91.0 58.0,90.8 59.0,90.8 59.8,90.0 60.0,89.8 61.0,89.8 61.8,89.0 62.0,88.8 63.0,88.8 63.8,88.0 64.0,87.8 65.0,87.8 66.0,87.8 66.8,87.0 67.0,86.8 68.0,86.8 69.0,86.8 69.8,86.0 70.0,85.8 71.0,85.8 72.0,85.8 73.0,85.8 73.8,85.0 74.0,84.8 75.0,84.8 76.0,84.8 77.0,84.8 77.8,84.0 78.0,83.8 79.0,83.8 80.0,83.8 81.0,83.8 81.8,83.0 82.0,82.8 83.0,82.8 84.0,82.8 85.0,82.8 86.0,82.8 87.0,82.8 88.0,82.8 88.8,82.0 89.0,81.8 90.0,81.8 91.0,81.8 92.0,81.8 93.0,81.8 94.0,81.8 95.0,81.8 96.0,81.8 97.0,81.8 98.0,81.8 99.0,81.8 100.0,81.8 101.0,81.8 102.0,81.8 103.0,81.8 103.8,81.0 104.0,80.8 105.0,80.8 106.0,80.8 107.0,80.8 108.0,80.8 109.0,80.8 110.0,80.8 111.0,80.8 112.0,80.8 113.0,80.8 114.0,80.8 115.0,80.8 116.0,80.8 117.0,80.8 118.0,80.8 119.0,80.8 120.0,80.8 121.0,80.8 122.0,80.8 123.0,80.8 124.0,80.8 125.0,80.8 126.0,80.8 127.0,80.8 128.0,80.8 129.0,80.8 130.0,80.8 131.0,80.8 132.0,80.8 133.0,80.8 134.0,80.8 135.0,80.8 136.0,80.8 137.0,80.8 138.0,80.8 139.0,80.8 140.0,80.8 141.0,80.8 142.0,80.8 143.0,80.8 143.2,81.0 144.0,81.8 144.2,82.0 144.2,83.0 144.0,83.2 143.2,84.0 143.0,84.2 142.2,85.0 142.0,85.2 141.2,86.0 141.0,86.2 140.2,87.0 140.0,87.2 139.2,88.0 139.2,89.0 139.0,89.2 138.2,90.0 138.0,90.2 137.2,91.0 137.0,91.2 136.2,92.0 136.2,93.0 136.0,93.2 135.2,94.0 135.0,94.2 134.2,95.0 134.2,96.0 134.0,96.2 133.2,97.0 133.0,97.2 132.2,98.0 132.2,99.0 132.0,99.2 131.2,100.0 131.2,101.0 131.0,101.2 130.2,102.0 130.0,102.2 129.2,103.0 129.2,104.0 129.0,104.2 128.2,105.0 128.0,105.2 127.2,106.0 127.2,107.0 127.0,107.2 126.2,108.0 126.2,109.0 126.0,109.2 125.2,110.0 125.0,110.2 124.2,111.0 124.2,112.0 124.0,112.2 123.2,113.0 123.2,114.0 123.0,114.2 122.2,115.0 122.0,115.2 121.2,116.0 121.2,117.0 121.0,117.2 120.2,118.0 120.0,118.2 119.2,119.0 119.2,120.0 119.0,120.2 118.2,121.0 118.0,121.2 117.2,122.0 117.2,123.0 117.0,123.2 116.2,124.0 116.2,125.0 116.0,125.2 115.2,126.0 115.0,126.2 114.2,127.0 114.0,127.2 113.2,128.0 113.2,129.0 113.0,129.2 112.2,130.0 112.0,130.2 111.2,131.0 111.0,131.2 110.2,132.0 110.0,132.2 109.2,133.0 109.0,133.2 108.2,134.0 108.0,134.2 107.2,135.0 107.0,135.2 106.2,136.0 106.0,136.2 105.2,137.0 105.0,137.2 104.2,138.0 104.0,138.2 103.2,139.0 103.0,139.2 102.2,140.0 102.0,140.2 101.2,141.0 101.0,141.2 100.2,142.0 100.0,142.2 99.2,143.0 99.0,143.2 98.2,144.0 98.0,144.2 97.2,145.0 97.0,145.2 96.2,146.0 96.0,146.2 95.0,146.2 94.2,147.0 94.0,147.2 93.2,148.0 93.0,148.2 92.2,149.0 92.0,149.2 91.0,149.2 90.2,150.0 90.0,150.2 89.2,151.0 89.0,151.2 88.2,152.0 88.0,152.2 87.0,152.2 86.2,153.0 86.0,153.2 85.0,153.2 84.2,154.0 84.0,154.2 83.2,155.0 83.0,155.2 82.0,155.2 81.2,156.0 81.0,156.2 80.0,156.2 79.2,157.0 79.0,157.2 78.0,157.2 77.2,158.0 77.0,158.2 76.0,158.2 75.0,158.2 74.2,159.0 74.0,159.2 73.0,159.2 72.0,159.2 71.0,159.2 70.2,160.0 70.0,160.2 69.0,160.2 68.0,160.2 67.0,160.2 66.2,161.0 66.0,161.2 65.0,161.2 64.0,161.2 63.0,161.2 62.0,161.2 61.2,162.0 61.0,162.2 60.0,162.2 59.0,162.2 58.0,162.2 57.0,162.2 56.0,162.2 55.0,162.2 54.0,162.2 53.2,163.0 53.0,163.2 52.0,163.2 51.0,163.2 50.0,163.2 49.0,163.2 48.0,163.2 47.0,163.2 46.0,163.2 45.0,163.2 44.0,163.2 43.0,163.2 42.0,163.2 41.2,164.0 41.0,164.2" stroke="black" stroke-width="0.5" /><polygon fill="#20361e" points="159.0,164.2 158.0,164.2 157.0,164.2 156.0,164.2 155.0,164.2 154.0,164.2 153.0,164.2 152.0,164.2 151.0,164.2 150.0,164.2 149.0,164.2 148.0,164.2 147.0,164.2 146.0,164.2 145.0,164.2 144.0,164.2 143.8,164.0 143.0,163.2 142.0,163.2 141.0,163.2 140.8,163.0 140.0,162.2 139.0,162.2 138.8,162.0 138.0,161.2 137.0,161.2 136.8,161.0 136.0,160.2 135.8,160.0 135.0,159.2 134.8,159.0 134.0,158.2 133.8,158.0 133.0,157.2 132.8,157.0 132.8,156.0 132.0,155.2 131.8,155.0 131.8,154.0 131.0,153.2 130.8,153.0 130.8,152.0 130.0,151.2 129.8,151.0 129.8,150.0 129.8,149.0 129.0,148.2 128.8,148.0 128.8,147.0 128.0,146.2 127.8,146.0 127.8,145.0 127.0,144.2 126.8,144.0 126.8,143.0 126.8,142.0 126.0,141.2 125.8,141.0 125.8,140.0 125.0,139.2 124.8,139.0 124.8,138.0 124.0,137.2 123.8,137.0 123.8,136.0 123.0,135.2 122.8,135.0 122.8,134.0 122.8,133.0 122.8,132.0 122.8,131.0 123.0,130.8 123.8,130.0 124.0,129.8 124.8,129.0 125.0,128.8 125.8,128.0 125.8,127.0 126.0,126.8 126.8,126.0 127.0,125.8 127.8,125.0 127.8,124.0 128.0,123.8 128.8,123.0 129.0,122.8 129.8,122.0 129.8,121.0 130.0,120.8 130.8,120.0 131.0,119.8 131.8,119.0 131.8,118.0 132.0,117.8 132.8,117.0 133.0,116.8 133.8,116.0 133.8,115.0 134.0,114.8 134.8,114.0 134.8,113.0 135.0,112.8 135.8,112.0 136.0,111.8 137.0,111.8 137.2,112.0 137.2,113.0 138.0,113.8 138.2,114.0 138.2,115.0 139.0,115.8 139.2,116.0 139.2,117.0 140.0,117.8 140.2,118.0 140.2,119.0 141.0,119.8 141.2,120.0 141.2,121.0 141.2,122.0 142.0,122.8 142.2,123.0 142.2,124.0 143.0,124.8 143.2,125.0 143.2,126.0 144.0,126.8 144.2,127.0 144.2,128.0 144.2,129.0 145.0,129.8 145.2,130.0 145.2,131.0 146.0,131.8 146.2,132.0 146.2,133.0 147.0,133.8 147.2,134.0 147.2,135.0 147.2,136.0 148.0,136.8 148.2,137.0 148.2,138.0 149.0,138.8 149.2,139.0 149.2,140.0 150.0,140.8 150.2,141.0 150.2,142.0 151.0,142.8 151.2,143.0 151.2,144.0 151.2,145.0 152.0,145.8 152.2,146.0 152.2,147.0 153.0,147.8 153.2,148.0 153.2,149.0 154.0,149.8 154.2,150.0 154.2,151.0 154.2,152.0 155.0,152.8 155.2,153.0 155.2,154.0 156.0,154.8 156.2,155.0 156.2,156.0 157.0,156.8 157.2,157.0 157.2,158.0 158.0,158.8 158.2,159.0 158.2,160.0 158.2,161.0 159.0,161.8 159.2,162.0 159.2,163.0 159.2,164.0 159.0,164.2" stroke="black" stroke-width="0.5" /></svg>