<?xml version="1.0" encoding="utf-8" ?>
<svg baseProfile="tiny" height="1280" version="1.2" width="1280" xmlns="http://www.w3.org/2000/svg" xmlns:ev="http://www.w3.org/2001/xml-events" xmlns:xlink="http://www.w3.org/1999/xlink"><defs /><polygon fill="#324836" points="817,783" /><polygon fill="#324836" points="626,783" /><polygon fill="#324836" points="1019,782" /><polygon fill="#324836" points="858,782" /><polygon fill="#324836" points="752,782" /><polygon fill="#324836" points="641,782" /><polygon fill="#324836" points="425,782" /><polygon fill="#324836" points="754,781" /><polygon fill="#324836" points="643,781" /><polygon fill="#324836" points="590,781" /><polygon fill="#324836" points="955,780 956,781" /><polygon fill="#324836" points="641,780" /><polygon fill="#324836" points="342,780" /><polygon fill="#324836" points="873,779" /><polygon fill="#324836" points="472,779" /><polygon fill="#324836" points="733,778" /><polygon fill="#324836" points="651,777" /><polygon fill="#324836" points="641,777" /><polygon fill="#324836" points="521,777" /><polygon fill="#324836" points="385,777" /><polygon fill="#324836" points="662,776" /><polygon fill="#324836" points="279,775" /><polygon fill="#324836" points="871,774" /><polygon fill="#324836" points="708,774" /><polygon fill="#324836" points="640,774" /><polygon fill="#324836" points="601,774" /><polygon fill="#324836" points="419,774" /><polygon fill="#324836" points="1020,773" /><polygon fill="#324836" points="864,773" /><polygon fill="#324836" points="720,773" /><polygon fill="#324836" points="662,773" /><polygon fill="#324836" points="645,773" /><polygon fill="#324836" points="520,773" /><polygon fill="#324836" points="529,772" /><polygon fill="#324836" points="330,772" /><polygon fill="#324836" points="808,769" /><polygon fill="#324836" points="821,767" /><polygon fill="#324836" points="798,767" /><polygon fill="#324836" points="795,766" /><polygon fill="#324836" points="764,766" /><polygon fill="#324836" points="597,766" /><polygon fill="#324836" points="466,766" /><polygon fill="#324836" points="390,766" /><polygon fill="#324836" points="334,766" /><polygon fill="#324836" points="825,765" /><polygon fill="#324836" points="788,765" /><polygon fill="#324836" points="661,765" /><polygon fill="#324836" points="653,765" /><polygon fill="#324836" points="601,765" /><polygon fill="#324836" points="388,765" /><polygon fill="#324836" points="702,764" /><polygon fill="#324836" points="386,764" /><polygon fill="#324836" points="336,764" /><polygon fill="#324836" points="640,763" /><polygon fill="#324836" points="522,763" /><polygon fill="#324836" points="304,763" /><polygon fill="#324836" points="569,762" /><polygon fill="#324836" points="956,761" /><polygon fill="#324836" points="934,761" /><polygon fill="#324836" points="582,761 583,762" /><polygon fill="#324836" points="507,761" /><polygon fill="#324836" points="349,761" /><polygon fill="#324836" points="984,759 984,781 997,781 997,779 987,779 986,778 986,759" /><polygon fill="#324836" points="1008,758 1007,759 1006,759 1005,760 1004,760 1003,761 1003,767 1005,769 1007,769 1008,770 1010,770 1011,771 1013,771 1015,773 1015,774 1014,775 1015,776 1015,777 1013,779 1011,779 1010,780 1009,779 1007,779 1003,775 1002,776 1002,777 1003,778 1003,779 1004,780 1005,780 1006,781 1008,781 1009,782 1010,781 1013,781 1014,780 1015,780 1016,779 1016,778 1017,777 1017,771 1016,771 1014,769 1012,769 1011,768 1008,768 1005,765 1005,763 1008,760 1012,760 1015,763 1016,763 1017,762 1016,761 1016,760 1015,760 1013,758" /><polygon fill="#324836" points="966,758 965,759 964,759 962,761 962,762 961,763 961,777 960,778 961,777 962,778 962,779 963,780 964,780 965,781 972,781 973,780 974,780 977,777 977,762 975,760 974,760 972,758" /><polygon fill="#324836" points="944,758 943,759 942,759 941,760 940,760 938,762 938,777 939,778 939,779 940,780 941,780 942,781 949,781 950,780 951,780 953,778 953,777 954,776 954,762 952,760 951,760 949,758" /><polygon fill="#324836" points="918,758 917,759 917,781 916,782 917,781 919,781 919,773 920,772 926,772 927,771 929,771 931,769 932,769 931,768 932,767 932,764 931,763 932,762 930,760 929,760 928,759 927,759 926,758 925,758 924,759 923,758 922,758 921,759 920,758 919,759" /><polygon fill="#324836" points="908,758" /><polygon fill="#324836" points="897,758 896,759 896,781 898,781 898,772 899,771 901,771 905,775 905,776 907,778 907,779 909,781 911,781 911,780 910,779 910,778 906,774 906,773 905,772 906,771 907,771 908,770 909,770 909,769 910,768 910,762 908,760 907,760 906,759 905,759 904,758" /><polygon fill="#324836" points="876,758 875,759 875,762 874,763 875,764 875,781 889,781 889,779 878,779 877,778 877,771 878,770 887,770 887,768 878,768 877,767 877,762 878,761 888,761 889,760 889,759 888,758 878,758 877,759" /><polygon fill="#324836" points="856,758 855,759 854,759 854,781 856,781 857,780 856,779 856,773 857,772 862,772 863,771 866,771 868,769 868,762 867,761 867,760 866,760 865,759 864,759 863,758" /><polygon fill="#324836" points="831,758 831,764 830,765 831,766 831,777 833,779 833,780 834,780 835,781 841,781 842,782 842,781 843,780 844,780 846,778 846,777 847,776 847,759 846,759 845,758 845,775 844,776 844,777 842,779 840,779 839,780 838,779 836,779 833,776 833,759 832,758" /><polygon fill="#324836" points="814,758 810,762 810,766 811,767 811,768 812,768 813,769 813,770 814,769 815,770 818,770 819,771 820,771 821,772 820,773 821,772 822,773 822,774 823,775 822,776 822,777 820,779 818,779 817,780 816,779 814,779 811,776 811,775 810,775 809,776 809,777 813,781 820,781 821,780 822,780 825,777 825,773 824,772 824,771 825,770 824,771 823,770 822,770 821,769 819,769 818,768 816,768 815,767 814,767 812,765 812,763 815,760 819,760 820,761 821,761 822,762 822,763 823,763 824,762 824,761 823,760 822,760 820,758" /><polygon fill="#324836" points="761,758 760,759 760,781 774,781 774,779 763,779 762,778 762,771 763,770 772,770 772,768 763,768 762,767 762,762 763,761 773,761 774,760 774,759 773,758 772,759 771,758 763,758 762,759" /><polygon fill="#324836" points="738,758 737,759 737,781 748,781 749,780 750,780 753,777 753,762 751,760 750,760 749,759 746,759 745,758 741,758 740,759 739,758" /><polygon fill="#324836" points="696,758 695,759 695,781 709,781 709,779 698,779 697,778 697,771 698,770 707,770 707,768 698,768 697,767 697,762 698,761 709,761 709,758 708,759 707,759 706,758 705,759 704,758" /><polygon fill="#324836" points="677,758" /><polygon fill="#324836" points="674,758 673,759 673,761 674,762 674,764 675,765 675,766 676,767 676,769 677,770 677,772 678,773 678,775 679,776 679,779 680,780 680,781 682,781 683,780 683,778 684,777 684,775 685,774 685,772 686,771 686,769 687,768 687,766 688,765 688,764 689,763 689,761 690,760 690,759 689,758 687,760 687,761 686,762 686,765 685,766 685,768 684,769 684,771 683,772 683,774 682,775 682,776 681,777 680,776 680,773 679,772 679,770 678,769 678,767 677,766 678,765 677,764 677,763 676,762 676,761 675,760 675,759" /><polygon fill="#324836" points="648,758 647,759 646,759 646,760 645,761 645,762 644,763 644,765 645,766 645,768 646,769 644,771 645,770 646,771 645,770 646,769 647,769 648,770 652,770 653,771 654,771 657,774 657,776 654,779 652,779 651,780 650,779 648,779 645,776 645,775 644,775 643,776 643,777 645,779 645,780 646,780 647,781 646,782 647,781 655,781 656,780 657,780 657,779 658,778 658,777 659,776 659,773 658,772 658,771 657,770 656,770 655,769 653,769 652,768 649,768 646,765 646,763 648,761 649,761 650,760 651,760 652,761 653,760 655,762 656,762 657,763 658,762 658,761 657,760 656,760 654,758" /><polygon fill="#324836" points="613,758 612,759 612,781 614,781 614,759" /><polygon fill="#324836" points="595,758 594,759 593,759 590,762 590,763 589,764 589,776 590,777 590,778 592,780 593,780 594,781 601,781 602,780 603,780 605,778 605,774 603,774 603,777 602,778 601,778 600,779 599,779 598,780 597,780 596,779 595,779 594,778 594,777 593,777 592,776 592,773 591,772 592,771 592,763 594,761 595,761 596,760 599,760 600,761 601,761 603,763 603,766 605,766 605,761 604,761 601,758" /><polygon fill="#324836" points="575,758 574,759 574,761 573,762 573,764 572,765 572,766 571,767 571,768 570,769 570,771 569,772 569,774 568,775 568,777 567,778 567,779 566,780 567,781 568,781 569,780 569,778 570,777 570,775 571,774 579,774 581,776 581,778 582,779 582,780 583,781 582,782 583,781 584,781 584,779 583,778 583,775 582,774 582,773 581,772 581,769 580,768 580,767 579,766 579,764 578,763 578,762 577,761 577,759 576,758" /><polygon fill="#324836" points="550,758 549,759 549,781 551,781 551,773 552,772 558,772 559,771 561,771 563,769 563,761 562,761 561,760 561,759 559,759 558,758 557,759 556,759 555,758" /><polygon fill="#324836" points="532,758 528,762 527,761 528,762 528,765 529,766 529,768 530,768 531,769 532,769 533,770 536,770 537,771 539,771 540,772 540,773 541,774 541,776 538,779 536,779 535,780 534,779 533,779 532,778 531,778 529,776 529,775 528,775 527,776 527,777 530,780 531,780 532,781 535,781 536,782 537,781 538,781 539,780 540,780 542,778 542,777 543,776 543,773 542,772 542,771 541,770 540,770 539,769 537,769 536,768 533,768 530,765 530,763 533,760 537,760 538,761 539,761 541,763 542,763 542,761 541,760 542,759 541,760 540,759 539,759 538,758" /><polygon fill="#324836" points="509,758 509,781 523,781 523,779 512,779 511,778 511,771 512,770 521,770 521,769 520,768 512,768 511,767 511,762 512,761 522,761 523,760 523,759 522,758 511,758 510,759" /><polygon fill="#324836" points="429,758 429,759 428,760 428,762 427,763 427,765 426,766 425,765 426,766 426,767 425,768 425,770 424,771 424,773 423,774 422,773 423,774 423,775 422,776 422,778 421,779 421,781 423,781 424,780 424,777 425,776 425,775 426,774 434,774 435,775 435,776 436,777 436,778 437,779 437,781 439,781 439,779 438,778 438,776 437,775 437,774 436,773 436,772 435,771 435,769 434,768 434,766 433,765 433,763 432,762 432,760 431,759 431,758" /><polygon fill="#324836" points="420,758" /><polygon fill="#324836" points="414,758 413,759 413,781 415,781 416,780 415,779 415,759" /><polygon fill="#324836" points="392,758 392,781 393,781 393,772 394,771 397,771 400,774 400,775 403,778 403,779 405,781 404,782 405,781 407,781 407,780 405,778 405,777 401,773 401,772 402,771 403,771 406,768 406,762 404,760 403,760 402,759 400,759 399,758" /><polygon fill="#324836" points="362,758 361,759 361,781 363,781 363,759" /><polygon fill="#324836" points="339,758 338,759 338,781 340,781 340,765 341,764 342,765 342,766 344,768 344,769 346,771 346,772 348,774 348,775 349,776 349,777 351,779 351,780 352,781 354,781 354,759 353,758 352,759 352,768 351,769 352,770 352,774 351,775 349,773 349,772 348,771 348,770 345,767 345,766 344,765 344,764 342,762 342,761 341,760 341,759 340,759" /><polygon fill="#324836" points="318,758 317,759 317,781 331,781 332,780 331,779 320,779 319,778 319,771 320,770 329,770 329,768 320,768 319,767 319,762 320,761 331,761 331,759 330,758 320,758 319,759" /><polygon fill="#324836" points="300,758 299,759 298,759 295,762 295,764 294,765 294,775 295,776 294,777 297,780 298,780 299,781 306,781 307,780 308,780 310,778 310,770 309,769 308,770 302,770 302,771 307,771 308,772 308,777 306,779 304,779 303,780 302,780 301,779 300,779 296,775 296,764 299,761 300,761 301,760 304,760 305,761 306,761 307,762 307,763 308,764 308,765 309,766 310,765 310,762 307,759 306,759 305,758" /><polygon fill="#324836" points="263,758 262,759 262,781 264,781 264,759" /><polygon fill="#324836" points="941,757" /><polygon fill="#324836" points="786,757 785,758 784,758 783,759 782,759 781,758 782,759 780,761 780,767 782,769 784,769 785,770 787,770 788,771 790,771 792,773 792,776 789,779 788,779 787,780 786,780 785,779 784,779 780,775 781,774 779,776 778,776 779,777 779,778 781,780 782,780 783,781 790,781 791,780 792,780 793,779 794,779 793,778 794,777 794,772 793,771 794,770 793,771 791,769 791,768 790,769 789,769 788,768 785,768 784,767 783,767 782,766 782,762 783,761 784,761 785,760 788,760 789,761 790,761 792,763 793,763 794,762 795,763 790,758 787,758" /><polygon fill="#324836" points="715,757 716,758 716,781 718,781 718,772 719,771 721,771 722,772 723,772 724,773 724,774 727,777 727,778 728,779 728,780 729,781 731,781 731,780 730,779 730,778 729,777 729,776 728,775 728,774 727,774 725,772 726,771 727,771 728,770 729,770 730,769 730,766 732,764 731,765 730,764 730,761 729,760 728,760 727,759 725,759 724,758 723,758 722,759 721,758 721,757 721,758 720,759 719,758 718,758 717,759" /><polygon fill="#324836" points="632,757 631,758 626,758 623,761 622,761 622,762 621,763 621,777 620,778 621,777 622,778 622,779 623,779 625,781 633,781 637,777 637,775 638,774 638,765 637,764 637,762" /><polygon fill="#324836" points="543,757" /><polygon fill="#324836" points="475,757 476,758 476,781 477,781 477,764 478,763 479,764 479,765 481,767 481,768 483,770 483,771 484,772 484,773 486,775 486,776 488,778 488,779 490,781 491,781 491,759 490,759 490,775 489,776 488,775 488,774 487,773 488,772 487,773 486,772 486,771 484,769 484,768 483,767 483,766 480,763 480,762 479,761 479,760 477,758 476,758" /><polygon fill="#324836" points="469,757 468,758 467,758 466,759 465,758 455,758 455,779 454,780 455,781 468,781 469,780 469,779 458,779 457,778 457,771 458,770 467,770 467,769 466,768 458,768 457,767 457,762 458,761 468,761 469,762 468,761 469,760 469,759 468,758" /><polygon fill="#324836" points="385,757 384,758 371,758 371,781 384,781 385,780 385,779 374,779 373,778 373,771 374,770 382,770 382,768 374,768 373,767 373,762 374,761 384,761 385,760 385,759 384,758" /><polygon fill="#324836" points="1010,756" /><polygon fill="#324836" points="975,756" /><polygon fill="#324836" points="777,756" /><polygon fill="#324836" points="629,756" /><polygon fill="#324836" points="594,756" /><polygon fill="#324836" points="532,756" /><polygon fill="#324836" points="455,756" /><polygon fill="#324836" points="430,756" /><polygon fill="#324836" points="424,756" /><polygon fill="#324836" points="340,756" /><polygon fill="#324836" points="331,756" /><polygon fill="#324836" points="318,756" /><polygon fill="#324836" points="829,755" /><polygon fill="#324836" points="714,755" /><polygon fill="#324836" points="612,755" /><polygon fill="#324836" points="578,755" /><polygon fill="#324836" points="525,755" /><polygon fill="#324836" points="465,755" /><polygon fill="#324836" points="410,755" /><polygon fill="#324836" points="386,755" /><polygon fill="#324836" points="370,755" /><polygon fill="#324836" points="355,755" /><polygon fill="#324836" points="274,755 271,758 271,781 273,781 273,765 274,764 276,766 276,767 277,768 277,769 279,771 279,772 281,774 281,775 283,777 283,778 284,779 284,780 285,781 287,781 287,759 286,758 285,759 285,771 283,773 281,771 281,770 279,768 279,767 277,765 277,764 276,763 276,762 272,758 272,757" /><polygon fill="#324836" points="261,755 262,756" /><polygon fill="#324836" points="821,754" /><polygon fill="#324836" points="580,754" /><polygon fill="#324836" points="421,754" /><polygon fill="#324836" points="388,754" /><polygon fill="#324836" points="339,754" /><polygon fill="#324836" points="964,753" /><polygon fill="#324836" points="611,753" /><polygon fill="#324836" points="582,753" /><polygon fill="#324836" points="524,753" /><polygon fill="#324836" points="466,753" /><polygon fill="#324836" points="449,753" /><polygon fill="#324836" points="361,753" /><polygon fill="#324836" points="308,753" /><polygon fill="#324836" points="286,753" /><polygon fill="#324836" points="273,753" /><polygon fill="#324836" points="262,753" /><polygon fill="#324836" points="417,751 415,753 415,754 413,756 415,756 418,753 418,752 419,751" /><polygon fill="#324836" points="753,710" /><polygon fill="#324836" points="454,710" /><polygon fill="#324836" points="553,709" /><polygon fill="#324836" points="258,709" /><polygon fill="#324836" points="708,708" /><polygon fill="#324836" points="1020,707" /><polygon fill="#324836" points="257,706 256,707" /><polygon fill="#324836" points="919,702" /><polygon fill="#324836" points="1018,701" /><polygon fill="#324836" points="1017,697" /><polygon fill="#324836" points="789,692" /><polygon fill="#324836" points="790,690" /><polygon fill="#324836" points="936,686" /><polygon fill="#324836" points="593,686" /><polygon fill="#324836" points="598,682" /><polygon fill="#324836" points="451,676" /><polygon fill="#324836" points="754,674" /><polygon fill="#324836" points="716,673" /><polygon fill="#324836" points="709,667" /><polygon fill="#324836" points="1003,666" /><polygon fill="#324836" points="973,656" /><polygon fill="#324836" points="565,655" /><polygon fill="#324836" points="998,654" /><polygon fill="#324836" points="566,648" /><polygon fill="#324836" points="612,647" /><polygon fill="#324836" points="614,646" /><polygon fill="#324836" points="613,642" /><polygon fill="#324836" points="992,641" /><polygon fill="#324836" points="842,640" /><polygon fill="#324836" points="988,637 986,639 986,640 984,642 984,643 983,644 983,645 981,647 981,648 980,649 980,650 977,653 977,654 975,656 975,657 973,659 973,660 969,664 969,665 970,666 970,668 971,669 971,670 972,671 972,673 974,675 974,677 975,678 975,679 976,680 976,681 977,682 977,684 978,685 978,686 979,687 978,688 979,688 980,689 980,690 981,691 981,693 982,694 982,695 983,696 983,697 989,703 990,703 991,704 991,705 992,704 993,705 995,705 996,706 1018,706 1018,705 1017,704 1017,703 1016,702 1016,700 1015,699 1015,698 1014,697 1014,694 1012,692 1012,690 1010,688 1010,686 1009,685 1010,684 1009,684 1008,683 1008,682 1007,681 1007,679 1006,678 1006,677 1005,676 1005,675 1004,674 1004,673 1003,672 1003,670 1002,669 1002,668 1001,667 1001,665 1000,664 1000,663 999,662 999,661 998,660 998,659 997,658 997,657 996,656 996,654 995,653 995,652 994,651 994,649 993,648 993,647 992,646 992,645 991,644 992,643 991,643 990,642 990,640 989,639 989,638 990,637 989,638" /><polygon fill="#324836" points="558,635" /><polygon fill="#324836" points="853,630" /><polygon fill="#324836" points="557,627" /><polygon fill="#324836" points="982,625" /><polygon fill="#324836" points="984,622 985,623" /><polygon fill="#324836" points="758,621" /><polygon fill="#324836" points="755,620" /><polygon fill="#324836" points="586,616" /><polygon fill="#324836" points="550,616" /><polygon fill="#324836" points="624,614" /><polygon fill="#324836" points="736,613" /><polygon fill="#324836" points="798,610" /><polygon fill="#324836" points="628,605" /><polygon fill="#324836" points="795,604" /><polygon fill="#324836" points="713,603" /><polygon fill="#324836" points="542,601" /><polygon fill="#324836" points="959,596 958,597 942,597 941,598 930,598 929,599 920,599 919,600 914,600 913,601 909,601 908,602 905,602 904,603 902,603 901,604 899,604 898,605 896,605 895,606 893,606 892,607 890,607 889,608 888,608 887,609 885,609 883,611 882,611 881,612 880,612 879,613 878,613 877,614 876,614 875,615 874,615 872,617 871,617 869,619 868,619 866,621 864,621 863,622 863,623 858,628 857,628 857,629 856,630 855,630 855,631 851,635 851,636 847,640 847,641 845,643 845,644 842,647 842,648 840,650 840,651 839,652 838,651 839,652 838,653 838,654 836,656 836,657 835,658 835,659 833,661 833,662 832,663 832,664 831,665 831,666 829,668 829,669 828,670 827,670 828,671 826,673 826,675 824,677 824,678 823,679 822,679 823,680 822,681 822,682 821,683 821,684 820,685 820,686 819,687 819,688 818,689 818,690 817,691 817,692 816,693 816,694 815,695 815,697 814,698 814,699 813,700 813,702 812,703 812,704 811,705 811,706 869,706 870,705 881,705 882,704 888,704 889,703 894,703 895,702 899,702 900,701 901,701 902,700 905,700 906,699 908,699 909,698 911,698 912,697 913,697 914,696 915,696 916,695 917,695 919,693 920,693 921,692 922,692 924,690 926,690 926,689 928,687 929,687 932,684 933,684 938,679 939,679 949,669 950,669 950,668 951,667 952,668 951,667 955,663 955,662 958,659 958,658 960,656 960,655 962,653 962,652 964,650 964,649 965,648 965,647 968,644 968,643 969,642 969,641 971,639 971,638 972,637 972,636 974,634 974,633 976,631 976,630 977,629 977,628 979,626 979,625 980,624 980,623 982,621 982,620 983,619 984,620 985,619 984,618 984,617 987,614 987,613 988,612 988,611 991,608 991,607 994,604 994,603 999,598 999,597 989,597 988,596" /><polygon fill="#324836" points="702,596" /><polygon fill="#324836" points="998,594" /><polygon fill="#324836" points="993,593" /><polygon fill="#324836" points="858,593" /><polygon fill="#324836" points="499,589" /><polygon fill="#324836" points="638,588" /><polygon fill="#324836" points="861,585" /><polygon fill="#324836" points="535,585" /><polygon fill="#324836" points="683,579 682,580" /><polygon fill="#324836" points="644,574" /><polygon fill="#324836" points="490,573" /><polygon fill="#324836" points="965,571" /><polygon fill="#324836" points="867,570" /><polygon fill="#324836" points="645,567" /><polygon fill="#324836" points="611,561" /><polygon fill="#324836" points="649,558" /><polygon fill="#324836" points="957,555" /><polygon fill="#324836" points="523,555" /><polygon fill="#324836" points="521,554" /><polygon fill="#324836" points="485,554" /><polygon fill="#324836" points="481,551" /><polygon fill="#324836" points="948,538" /><polygon fill="#324836" points="950,537" /><polygon fill="#324836" points="760,537" /><polygon fill="#324836" points="798,535" /><polygon fill="#324836" points="357,535" /><polygon fill="#324836" points="753,534" /><polygon fill="#324836" points="798,533" /><polygon fill="#324836" points="661,533" /><polygon fill="#324836" points="356,533" /><polygon fill="#324836" points="939,518" /><polygon fill="#324836" points="938,513" /><polygon fill="#324836" points="785,512" /><polygon fill="#324836" points="782,509" /><polygon fill="#324836" points="633,509" /><polygon fill="#324836" points="671,507" /><polygon fill="#324836" points="464,507" /><polygon fill="#324836" points="294,501" /><polygon fill="#324836" points="257,501" /><polygon fill="#324836" points="901,500 900,501 900,502 899,503 899,504 898,505 898,507 897,508 897,509 896,510 896,512 895,513 894,513 894,516 893,517 893,518 892,519 892,521 891,522 891,523 890,524 890,526 889,527 889,528 888,529 888,530 887,531 887,532 886,533 886,534 885,535 885,536 884,537 884,539 883,540 883,541 882,542 881,541 882,542 882,543 881,544 881,546 880,547 880,548 879,549 879,550 878,551 878,553 877,554 877,555 876,556 876,557 875,558 875,559 874,560 874,561 873,562 873,564 872,565 872,566 871,567 871,569 870,570 870,571 869,572 869,573 868,574 868,575 867,576 867,578 866,579 865,579 866,580 865,581 865,583 864,584 864,585 863,586 863,587 862,588 862,589 861,590 861,591 860,592 860,594 859,595 859,596 858,597 858,599 857,600 857,601 856,602 856,603 855,604 855,605 854,606 854,607 853,608 853,610 852,611 852,612 851,613 851,615 850,616 851,616 853,614 854,614 858,610 859,610 862,607 863,607 864,606 865,606 866,605 867,605 869,603 870,603 871,602 872,602 873,601 874,601 875,600 876,600 877,599 878,599 879,598 880,598 881,597 883,597 885,595 887,595 888,594 890,594 891,593 892,593 893,594 892,593 892,591 893,590 894,590 893,589 894,588 894,586 895,585 895,584 896,583 896,582 897,581 897,580 898,579 898,578 899,577 899,575 900,574 900,572 901,571 901,570 902,569 902,568 903,567 903,566 904,565 904,564 905,563 905,561 906,560 906,558 907,557 907,556 908,555 909,555 908,554 909,553 909,552 910,551 910,550 911,549 911,547 912,546 912,545 913,544 913,540 914,539 916,541 916,543 917,544 916,545 918,547 918,549 919,550 919,551 920,552 920,553 921,554 921,555 922,556 922,557 923,558 923,560 924,561 924,562 925,563 925,564 926,565 926,567 927,568 927,569 928,570 928,571 929,572 929,574 930,575 930,576 931,577 931,578 932,579 932,581 933,582 933,583 946,583 947,582 964,582 964,581 963,580 964,579 963,579 962,578 962,576 961,575 961,574 960,573 960,572 959,571 959,570 958,569 958,567 957,566 957,565 956,564 956,562 955,561 955,560 954,559 954,558 953,557 953,556 952,555 952,554 951,553 951,551 950,550 950,549 949,548 949,546 948,545 948,544 947,543 947,542 946,541 946,540 945,539 945,537 944,536 944,535 943,534 943,533 942,532 942,530 941,529 941,528 940,527 940,526 939,525 939,524 938,523 938,521 937,520 937,519 936,518 936,517 937,516 936,517 935,516 935,514 934,513 934,512 933,511 933,510 932,509 932,508 931,507 931,506 932,505 931,505 930,504 930,503 929,502 929,500" /><polygon fill="#324836" points="465,500 464,501 465,502 465,504 466,505 466,506 467,507 467,508 468,509 468,510 469,511 469,513 470,514 469,515 470,515 471,516 470,517 472,519 472,520 473,521 473,522 474,523 474,524 475,525 475,526 476,527 476,529 477,530 477,532 478,533 478,534 479,535 478,536 479,536 480,537 480,538 481,539 481,540 482,541 482,543 483,544 483,545 484,546 484,548 485,549 485,550 486,551 486,552 487,553 487,554 488,555 487,556 488,556 489,557 488,558 489,558 490,559 490,561 491,562 491,564 492,565 492,566 493,567 493,568 494,569 494,570 495,571 495,572 496,573 496,575 497,576 497,577 498,578 498,580 499,581 498,582 499,582 500,583 500,584 501,585 501,586 502,587 502,588 503,589 503,591 504,592 504,593 505,594 505,596 506,597 506,598 507,599 507,600 508,601 508,602 509,603 509,605 510,606 510,607 511,608 511,609 512,610 512,612 513,613 513,614 514,615 514,617 516,619 516,621 517,622 517,623 518,624 518,625 519,626 519,627 520,628 520,629 521,630 521,632 522,633 522,634 523,635 523,637 524,638 524,640 525,641 525,642 527,644 527,646 528,647 528,648 529,649 529,651 530,652 530,653 531,654 531,655 532,656 532,658 534,660 534,662 535,663 535,665 536,666 536,667 537,668 537,669 538,670 538,671 539,672 539,673 538,674 539,673 540,674 540,676 541,677 541,678 542,679 542,680 543,681 543,683 544,684 544,685 545,686 545,687 546,688 546,689 547,690 547,692 548,693 548,694 549,695 549,697 550,698 550,699 551,700 551,701 552,702 552,703 553,704 553,705 554,706 582,706 582,705 583,704 583,702 584,701 584,700 585,699 585,698 586,697 586,696 587,695 587,694 588,693 588,691 589,690 589,689 590,688 590,686 592,684 592,682 593,681 593,680 594,679 594,678 595,677 595,675 596,674 596,672 597,671 597,670 598,669 598,668 599,667 599,666 600,665 600,664 601,663 601,661 602,660 602,659 603,658 603,656 605,654 605,653 606,652 606,650 607,649 607,648 608,647 608,645 609,644 609,643 610,642 610,641 611,640 611,639 612,638 612,636 613,635 613,634 614,633 614,632 615,631 615,629 616,628 616,627 617,626 618,627 617,626 617,625 618,624 618,623 619,622 619,621 620,620 620,618 621,617 621,615 622,614 622,613 623,612 623,611 625,609 625,606 626,605 626,604 627,603 627,602 628,601 628,600 629,599 629,597 630,596 630,595 631,594 631,593 632,592 632,590 633,589 633,588 634,587 634,586 635,585 635,583 636,582 636,581 637,580 638,581 637,580 637,579 638,578 638,577 639,576 639,574 640,573 641,573 640,572 641,571 641,570 642,569 642,567 643,566 643,565 644,564 644,563 645,562 645,561 646,560 646,558 647,557 647,556 648,555 648,553 650,551 650,549 651,548 651,547 652,546 652,544 653,543 653,542 654,541 654,540 655,539 655,538 656,537 656,536 657,535 657,533 658,532 658,531 659,530 659,528 660,527 660,526 661,525 661,524 662,523 662,522 663,521 663,520 664,519 664,517 665,516 665,515 666,514 666,512 667,511 667,510 668,509 668,508 669,507 669,506 670,505 670,503 671,502 671,500 652,500 651,501 648,501 647,502 646,502 645,503 644,503 643,504 642,504 641,505 640,505 640,506 636,510 636,511 635,512 635,513 634,514 634,515 633,516 633,517 632,518 632,520 631,521 631,522 630,523 630,524 629,525 629,526 628,527 628,529 627,530 627,531 626,532 626,533 625,534 625,536 624,537 624,538 623,539 623,540 622,541 622,543 621,544 621,545 620,546 620,547 619,548 618,548 619,549 619,550 618,551 618,552 617,553 617,554 616,555 616,557 615,558 615,559 614,560 614,561 613,562 613,564 612,565 612,566 611,567 611,568 609,570 609,572 608,573 608,575 607,576 607,577 606,578 606,580 605,581 605,582 604,583 604,584 603,585 603,586 602,587 602,589 601,590 601,591 600,592 600,593 599,594 599,596 598,597 598,598 597,599 597,600 596,601 596,602 595,603 595,605 594,606 594,607 593,608 593,610 592,611 592,612 591,613 591,614 590,615 590,616 589,617 589,618 588,619 588,621 587,622 587,623 586,624 586,626 585,627 585,628 584,629 584,630 583,631 583,632 582,633 582,634 581,635 581,637 580,638 580,639 579,640 579,642 577,644 577,646 576,647 576,648 575,649 575,651 574,652 574,653 573,654 573,656 572,657 572,658 571,659 571,660 570,661 570,662 569,663 569,666 568,667 567,666 567,665 566,664 566,663 565,662 565,660 564,659 564,658 563,657 563,656 562,655 563,654 561,652 561,650 560,649 560,648 558,646 558,644 557,643 557,642 556,641 556,639 555,638 555,637 554,636 554,635 553,634 553,632 551,630 551,628 550,627 550,626 549,625 549,623 548,622 548,620 547,619 547,618 545,616 545,614 544,613 545,612 544,612 543,611 543,609 542,608 542,607 541,606 541,605 540,604 540,603 539,602 539,601 538,600 538,598 537,597 538,596 537,596 536,595 536,593 535,592 535,591 534,590 534,588 532,586 532,585 531,584 531,582 530,581 530,579 529,578 529,577 528,576 528,575 527,574 527,573 526,572 526,571 525,570 525,568 524,567 524,566 523,565 523,563 522,562 522,561 521,560 521,559 520,558 520,557 519,556 519,555 518,554 518,552 517,551 517,550 516,549 516,547 515,546 515,545 514,544 514,543 513,542 513,541 512,540 512,539 513,538 512,539 511,538 511,536 510,535 510,534 509,533 509,531 508,530 509,529 508,529 507,528 507,527 506,526 506,525 505,524 506,523 504,521 504,520 503,519 503,517 502,516 502,515 501,514 501,513 500,512 500,511 498,509 498,508 497,507 497,506 496,506 495,505 494,505 492,503 491,503 490,502 488,502 487,501 485,501 484,500" /><polygon fill="#324836" points="326,500 325,501 325,705 324,706 452,706 452,678 355,678 354,677 354,617 355,616 356,617 357,616 358,616 359,617 360,616 434,616 434,588 355,588 354,587 354,530 355,529 452,529 452,500" /><polygon fill="#324836" points="261,500 261,706 289,706 289,500" /><polygon fill="#324836" points="928,498" /><polygon fill="#324836" points="732,498 731,499 726,499 725,500 723,500 722,501 720,501 719,502 716,502 715,503 713,503 712,504 711,504 710,505 709,505 708,506 707,506 706,507 705,507 704,506 705,507 702,510 701,510 699,512 698,512 691,519 691,520 688,523 687,523 688,524 686,526 686,527 685,528 685,529 684,530 684,531 683,532 683,534 682,535 682,537 681,538 681,541 680,542 680,562 681,563 681,566 682,567 682,570 683,571 682,572 683,572 684,573 684,574 685,575 685,577 687,579 687,580 691,584 691,585 693,587 694,587 699,592 700,592 702,594 703,594 705,596 706,596 707,597 708,597 710,599 711,599 712,600 714,600 715,601 716,601 717,602 718,602 719,603 721,603 723,605 725,605 726,606 728,606 729,607 730,607 731,608 733,608 734,609 736,609 737,610 738,610 739,611 740,611 741,612 743,612 744,613 746,613 747,614 748,614 749,615 751,615 752,616 754,616 756,618 758,618 759,619 760,619 762,621 763,621 764,622 765,622 774,631 774,632 775,633 775,634 776,635 776,636 777,637 777,643 778,644 778,646 777,647 777,653 776,654 776,656 775,657 775,658 774,659 774,660 773,661 773,662 769,666 768,665 769,666 764,671 763,671 761,673 759,673 756,676 754,676 753,677 751,677 750,678 747,678 746,679 742,679 741,680 730,680 729,679 724,679 723,678 721,678 720,677 718,677 717,676 716,676 714,674 713,674 711,672 710,672 704,666 703,666 702,665 701,665 700,664 699,664 697,662 696,663 695,662 686,662 685,663 682,663 681,664 680,664 679,665 678,665 677,666 676,666 675,667 674,667 673,668 672,668 672,670 673,671 673,672 674,673 674,674 676,676 676,677 678,679 678,681 687,690 686,691 687,690 694,697 695,697 696,698 697,698 698,699 697,700 698,699 699,699 700,700 701,700 703,702 704,702 705,703 707,703 708,704 709,704 710,705 713,705 714,706 717,706 718,707 721,707 722,708 729,708 730,709 741,709 742,708 750,708 751,707 753,707 754,706 757,706 758,705 761,705 762,704 763,704 764,703 766,703 767,702 768,702 769,701 770,701 771,700 772,700 773,699 774,699 775,698 776,698 778,696 779,696 783,692 784,692 793,683 793,682 794,681 795,681 795,680 796,679 796,678 798,676 798,675 800,673 800,672 801,671 801,669 802,668 802,667 803,666 803,663 804,662 804,660 805,659 805,656 806,655 806,635 805,634 805,630 804,629 804,627 803,626 803,624 802,623 802,621 801,620 801,619 799,617 799,616 798,615 798,614 796,612 796,611 792,607 792,606 791,606 786,601 785,601 782,598 781,598 779,596 778,596 777,595 776,595 775,594 774,594 773,593 772,593 771,592 770,592 769,591 770,590 769,591 768,591 767,590 765,590 764,589 763,589 762,588 761,588 760,587 757,587 756,586 754,586 753,585 752,585 751,584 750,584 749,583 747,583 746,582 744,582 743,581 741,581 740,580 738,580 737,579 735,579 734,578 733,578 732,577 731,577 730,576 728,576 727,575 726,575 725,574 724,574 723,573 722,573 720,571 719,571 716,568 715,568 712,565 713,564 712,564 711,563 711,562 710,561 710,560 709,559 709,554 708,553 708,550 709,549 709,545 710,544 710,543 711,542 711,541 713,539 713,538 714,537 715,537 720,532 721,532 722,531 723,531 724,530 725,530 726,529 729,529 730,528 732,528 733,527 747,527 748,528 750,528 751,529 753,529 754,530 755,530 756,531 757,531 758,532 759,532 762,535 763,535 764,536 765,536 766,537 767,537 768,538 782,538 783,537 785,537 786,538 785,537 786,536 787,536 789,534 790,535 789,534 791,532 792,532 793,531 794,531 797,528 795,526 796,525 795,525 793,523 793,522 791,522 789,520 789,519 788,519 787,518 787,517 786,517 783,514 782,514 779,511 778,511 776,509 775,509 773,507 772,507 771,506 770,506 769,505 768,505 767,504 766,504 765,503 763,503 762,502 760,502 759,501 757,501 756,500 755,500 754,499 750,499 749,498" /><polygon fill="#324836" points="766,497" /><polygon fill="#324836" points="726,497" /><polygon fill="#324836" points="493,497" /><text fill="#324836" font-family="Arial" font-size="20px" text-anchor="middle" x="640.0" y="1088.0">INGENIERÍA EN ESPACIOS VERDES SUPERPOOLS</text></svg>